<?xml version="1.0" standalone="no"?>
<!DOCTYPE svg PUBLIC "-//W3C//DTD SVG 20010904//EN"
 "http://www.w3.org/TR/2001/REC-SVG-20010904/DTD/svg10.dtd">
<svg version="1.0" xmlns="http://www.w3.org/2000/svg"
 width="700.000000pt" height="700.000000pt" viewBox="0 0 700.000000 700.000000"
 preserveAspectRatio="xMidYMid meet">
<metadata>
Created by potrace 1.14, written by Peter Selinger 2001-2017
</metadata>
<g transform="translate(0.000000,700.000000) scale(0.100000,-0.100000)"
fill="#000000" stroke="none">
<path d="M3348 6705 c-2 -1 -30 -6 -63 -10 -296 -33 -549 -159 -775 -385 -218
-217 -355 -474 -397 -745 -2 -16 -6 -41 -9 -55 -2 -14 -7 -65 -10 -115 -4 -49
-7 -91 -9 -93 -1 -1 -175 -2 -387 -3 -420 0 -458 -4 -558 -56 -73 -37 -178
-144 -212 -215 -57 -116 -54 -17 -53 -2098 1 -1059 5 -1941 9 -1960 11 -61 73
-174 123 -226 63 -66 125 -108 204 -135 l64 -23 2225 -1 c2138 0 2227 1 2278
18 160 56 289 190 333 347 17 62 20 3874 3 3959 -36 176 -183 328 -362 376
-38 9 -152 13 -443 14 -216 1 -394 2 -395 4 -1 1 -5 43 -8 92 -28 400 -198
722 -524 993 -134 111 -303 203 -467 255 -76 24 -104 30 -177 42 -18 3 -49 8
-68 12 -36 6 -316 14 -322 8z m247 -489 c309 -22 592 -216 733 -501 57 -115
83 -219 96 -377 l2 -38 -305 0 c-1045 -2 -1533 0 -1541 5 -5 3 -7 15 -5 28 2
12 6 51 10 87 9 84 9 82 35 169 73 247 295 482 540 573 79 30 172 50 255 55
44 3 82 7 83 8 2 2 9 2 15 0 7 -2 44 -6 82 -9z m-1044 -1755 c0 -20 2 -45 4
-56 2 -11 7 -38 10 -60 4 -22 9 -53 12 -69 15 -88 75 -218 149 -321 190 -266
473 -410 793 -404 225 4 407 71 576 213 224 187 341 423 354 717 1 13 31 15
241 15 166 1 240 -3 241 -10 1 -23 -3 -138 -6 -154 -1 -9 -6 -42 -10 -72 -41
-301 -236 -637 -498 -858 -309 -260 -633 -362 -1057 -332 -143 10 -350 69
-490 140 -265 133 -520 385 -647 640 -45 90 -56 114 -84 185 -16 42 -47 173
-55 231 -3 27 -8 57 -9 66 -3 16 -7 131 -6 153 1 7 81 11 241 11 l240 0 1 -35z"/>
</g>
</svg>
